<svg width="203" height="51" viewBox="0 0 203 51" fill="none" xmlns="http://www.w3.org/2000/svg">
<path d="M1.62451 0.779297H1.12451V1.2793V49.6877V50.1877H1.62451H201.595H202.095V49.6877V1.2793V0.779297H201.595H1.62451Z" fill="black" fill-opacity="0.7" stroke="white"/>
<path d="M113.844 19.2219V27.8019H112.856V22.4069L112.973 20.1449H112.96L110.139 27.8019H109.255L106.434 20.1449H106.421L106.538 22.4069V27.8019H105.55V19.2219H107.149L109.034 24.4349L109.684 26.5799H109.71L110.373 24.4479L112.245 19.2219H113.844ZM119.053 21.1719C119.668 21.1719 120.21 21.3062 120.678 21.5749C121.154 21.8435 121.527 22.2335 121.796 22.7449C122.064 23.2475 122.199 23.8499 122.199 24.5519C122.199 25.2539 122.064 25.8605 121.796 26.3719C121.527 26.8745 121.154 27.2602 120.678 27.5289C120.21 27.7975 119.668 27.9319 119.053 27.9319C118.446 27.9319 117.904 27.7975 117.428 27.5289C116.951 27.2602 116.578 26.8745 116.31 26.3719C116.041 25.8605 115.907 25.2539 115.907 24.5519C115.907 23.8499 116.041 23.2475 116.31 22.7449C116.578 22.2335 116.951 21.8435 117.428 21.5749C117.904 21.3062 118.446 21.1719 119.053 21.1719ZM119.053 22.0689C118.611 22.0689 118.234 22.1685 117.922 22.3679C117.61 22.5672 117.367 22.8532 117.194 23.2259C117.029 23.5899 116.947 24.0319 116.947 24.5519C116.947 25.0632 117.029 25.5052 117.194 25.8779C117.367 26.2505 117.61 26.5365 117.922 26.7359C118.234 26.9352 118.611 27.0349 119.053 27.0349C119.495 27.0349 119.872 26.9352 120.184 26.7359C120.496 26.5365 120.734 26.2505 120.899 25.8779C121.072 25.5052 121.159 25.0632 121.159 24.5519C121.159 24.0319 121.072 23.5899 120.899 23.2259C120.734 22.8532 120.496 22.5672 120.184 22.3679C119.872 22.1685 119.495 22.0689 119.053 22.0689ZM124.157 27.8019V21.3019H125.002L125.145 22.3679C125.327 21.9692 125.591 21.6702 125.938 21.4709C126.293 21.2715 126.722 21.1719 127.225 21.1719C127.337 21.1719 127.459 21.1805 127.589 21.1979C127.727 21.2152 127.844 21.2499 127.94 21.3019L127.758 22.2509C127.662 22.2162 127.558 22.1902 127.446 22.1729C127.333 22.1555 127.173 22.1469 126.965 22.1469C126.696 22.1469 126.423 22.2249 126.146 22.3809C125.877 22.5369 125.652 22.7752 125.47 23.0959C125.288 23.4079 125.197 23.8065 125.197 24.2919V27.8019H124.157ZM131.977 27.9319C131.362 27.9319 130.812 27.7975 130.326 27.5289C129.85 27.2602 129.477 26.8745 129.208 26.3719C128.94 25.8605 128.805 25.2539 128.805 24.5519C128.805 23.8499 128.94 23.2475 129.208 22.7449C129.477 22.2335 129.845 21.8435 130.313 21.5749C130.781 21.3062 131.314 21.1719 131.912 21.1719C132.519 21.1719 133.035 21.3019 133.459 21.5619C133.893 21.8219 134.222 22.1772 134.447 22.6279C134.673 23.0699 134.785 23.5682 134.785 24.1229C134.785 24.2702 134.781 24.4045 134.772 24.5259C134.764 24.6472 134.751 24.7555 134.733 24.8509H129.481V23.9279H134.278L133.745 24.0319C133.745 23.4079 133.572 22.9269 133.225 22.5889C132.887 22.2509 132.441 22.0819 131.886 22.0819C131.462 22.0819 131.093 22.1815 130.781 22.3809C130.478 22.5715 130.24 22.8532 130.066 23.2259C129.902 23.5899 129.819 24.0319 129.819 24.5519C129.819 25.0632 129.906 25.5052 130.079 25.8779C130.253 26.2505 130.495 26.5365 130.807 26.7359C131.128 26.9265 131.509 27.0219 131.951 27.0219C132.428 27.0219 132.814 26.9309 133.108 26.7489C133.412 26.5669 133.654 26.3199 133.836 26.0079L134.655 26.4889C134.491 26.7835 134.278 27.0392 134.018 27.2559C133.767 27.4725 133.468 27.6415 133.121 27.7629C132.783 27.8755 132.402 27.9319 131.977 27.9319ZM137.283 26.2419C137.535 26.2419 137.738 26.3199 137.894 26.4759C138.05 26.6319 138.128 26.8355 138.128 27.0869C138.128 27.3382 138.05 27.5419 137.894 27.6979C137.738 27.8539 137.535 27.9319 137.283 27.9319C137.032 27.9319 136.828 27.8539 136.672 27.6979C136.516 27.5419 136.438 27.3382 136.438 27.0869C136.438 26.8355 136.516 26.6319 136.672 26.4759C136.828 26.3199 137.032 26.2419 137.283 26.2419ZM140.736 26.2419C140.988 26.2419 141.191 26.3199 141.347 26.4759C141.503 26.6319 141.581 26.8355 141.581 27.0869C141.581 27.3382 141.503 27.5419 141.347 27.6979C141.191 27.8539 140.988 27.9319 140.736 27.9319C140.485 27.9319 140.281 27.8539 140.125 27.6979C139.969 27.5419 139.891 27.3382 139.891 27.0869C139.891 26.8355 139.969 26.6319 140.125 26.4759C140.281 26.3199 140.485 26.2419 140.736 26.2419ZM144.189 26.2419C144.441 26.2419 144.644 26.3199 144.8 26.4759C144.956 26.6319 145.034 26.8355 145.034 27.0869C145.034 27.3382 144.956 27.5419 144.8 27.6979C144.644 27.8539 144.441 27.9319 144.189 27.9319C143.938 27.9319 143.734 27.8539 143.578 27.6979C143.422 27.5419 143.344 27.3382 143.344 27.0869C143.344 26.8355 143.422 26.6319 143.578 26.4759C143.734 26.3199 143.938 26.2419 144.189 26.2419Z" fill="white"/>
<path d="M44.7321 25.5265C44.9701 25.2902 44.9701 24.9071 44.7321 24.6708L40.8522 20.8199C40.6141 20.5836 40.228 20.5836 39.99 20.8199C39.7519 21.0562 39.7519 21.4394 39.99 21.6757L43.4388 25.0987L39.99 28.5217C39.7519 28.758 39.7519 29.1411 39.99 29.3774C40.228 29.6137 40.6141 29.6137 40.8522 29.3774L44.7321 25.5265ZM16.2563 25.7038H44.301V24.4936H16.2563V25.7038Z" fill="white"/>
</svg>
